<svg id="Capa_1" data-name="Capa 1" xmlns="http://www.w3.org/2000/svg" viewBox="0 0 55.92 58.32"><defs><style>.cls-1{fill:#fff;stroke:#757574;stroke-miterlimit:10;}.cls-2{fill:#757574;}</style></defs><title>misjuguetes_off</title><path class="cls-1" d="M28.59,17h19.3s.55,18.06-18,18.06C19.3,35.09,11.7,32.69,11.7,19S28.59,2.92,28.59,17Z"/><circle class="cls-1" cx="20.73" cy="31.7" r="5.12"/><circle class="cls-1" cx="37.12" cy="31.7" r="5.12"/><circle class="cls-2" cx="18.11" cy="12.86" r="0.64"/><path class="cls-2" d="M8,13.36a27.15,27.15,0,0,0,1.43,2.58,3.79,3.79,0,0,0,.91.92,4.62,4.62,0,0,0,1.34.57,2.19,2.19,0,0,1-1.67.14,2.86,2.86,0,0,1-1.39-1.05A4,4,0,0,1,8,15,3.69,3.69,0,0,1,8,13.36Z"/><path class="cls-2" d="M8.72,21a2.11,2.11,0,0,1,1-1.6,1.84,1.84,0,0,1,1.93-.07c-.3.22-.53.36-.76.51s-.44.27-.65.42A8,8,0,0,1,8.72,21Z"/><path class="cls-2" d="M11.79,45.32l3,7,3-7h.4v7.35H18v-7l-3,7H14.7l-3-6.91v6.91H11.4V45.32Z"/><path class="cls-2" d="M21.79,52.24l0-.1,1.89-4.93H24l-2.44,6.41-.13.3a1.33,1.33,0,0,1-1.3.95,1,1,0,0,1-.4,0v-.26a1.4,1.4,0,0,0,.37,0,1,1,0,0,0,.71-.25,1.81,1.81,0,0,0,.49-.81l.34-.9-2.18-5.43h.3Z"/><path class="cls-2" d="M28.14,45.73v1.48h1.25v.27H28.14v3.88a1.61,1.61,0,0,0,.19.86.74.74,0,0,0,.64.28,4.15,4.15,0,0,0,.54,0l0,.26a1.87,1.87,0,0,1-.57.06,1,1,0,0,1-.85-.33,1.72,1.72,0,0,1-.26-1V47.48h-1v-.27h1V45.73Z"/><path class="cls-2" d="M30.29,49.83a3.24,3.24,0,0,1,.3-1.41,2.3,2.3,0,0,1,.85-1,2.27,2.27,0,0,1,1.24-.35,2.25,2.25,0,0,1,2.08,1.3,3.2,3.2,0,0,1,.31,1.4V50a3.18,3.18,0,0,1-.3,1.41,2.24,2.24,0,0,1-2.08,1.32,2.35,2.35,0,0,1-1.24-.34,2.24,2.24,0,0,1-.85-1,3.12,3.12,0,0,1-.31-1.39Zm.27.21a2.86,2.86,0,0,0,.27,1.25,2.12,2.12,0,0,0,.75.89,2,2,0,0,0,1.11.32,1.89,1.89,0,0,0,1.52-.71A2.71,2.71,0,0,0,34.8,50v-.16a2.85,2.85,0,0,0-.27-1.24,2.22,2.22,0,0,0-.76-.89,1.86,1.86,0,0,0-1.09-.32,1.9,1.9,0,0,0-1.53.71,2.72,2.72,0,0,0-.59,1.79Z"/><path class="cls-2" d="M38,52.24l0-.1,1.88-4.93h.31l-2.45,6.41-.12.3a1.34,1.34,0,0,1-1.3.95,1,1,0,0,1-.41,0v-.26a1.4,1.4,0,0,0,.37,0,1,1,0,0,0,.71-.25,1.91,1.91,0,0,0,.49-.81l.33-.9-2.17-5.43H36Z"/><path class="cls-2" d="M44.62,51.33c0-.66-.56-1.11-1.69-1.35a3.34,3.34,0,0,1-1.42-.56,1.16,1.16,0,0,1-.4-.94,1.2,1.2,0,0,1,.51-1,2.09,2.09,0,0,1,1.32-.39,2.19,2.19,0,0,1,1.42.43,1.38,1.38,0,0,1,.53,1.13h-.28a1.11,1.11,0,0,0-.46-.91,2.2,2.2,0,0,0-2.35-.06.94.94,0,0,0-.42.78.91.91,0,0,0,.16.58,1.26,1.26,0,0,0,.51.38,5.7,5.7,0,0,0,1,.33,4.28,4.28,0,0,1,1.07.36,1.43,1.43,0,0,1,.57.51,1.31,1.31,0,0,1,.18.71,1.25,1.25,0,0,1-.53,1,2.31,2.31,0,0,1-1.39.39,2.39,2.39,0,0,1-1.48-.42,1.27,1.27,0,0,1-.57-1.07h.28a1.13,1.13,0,0,0,.5.9A2.25,2.25,0,0,0,43,52.5a2,2,0,0,0,1.19-.34A1,1,0,0,0,44.62,51.33Z"/></svg>