<svg id="Capa_1" data-name="Capa 1" xmlns="http://www.w3.org/2000/svg" xmlns:xlink="http://www.w3.org/1999/xlink" viewBox="0 0 55.92 58.32"><defs><style>.cls-1{fill:#fff;stroke-miterlimit:10;stroke:url(#Degradado_sin_nombre_11);}.cls-2{fill:url(#Degradado_sin_nombre_11-2);}.cls-3{fill:url(#Degradado_sin_nombre_11-3);}.cls-4{fill:url(#Degradado_sin_nombre_11-4);}.cls-5{fill:url(#Degradado_sin_nombre_11-5);}.cls-6{fill:url(#Degradado_sin_nombre_11-6);}.cls-7{fill:url(#Degradado_sin_nombre_11-7);}.cls-8{fill:url(#Degradado_sin_nombre_11-8);}.cls-9{fill:url(#Degradado_sin_nombre_11-9);}.cls-10{fill:url(#Degradado_sin_nombre_11-10);}</style><linearGradient id="Degradado_sin_nombre_11" x1="11.23" y1="22.16" x2="44.69" y2="22.16" gradientUnits="userSpaceOnUse"><stop offset="0" stop-color="#36ae7e"/><stop offset="1" stop-color="#5db35a"/></linearGradient><linearGradient id="Degradado_sin_nombre_11-2" x1="8.52" y1="48.99" x2="13.08" y2="48.99" xlink:href="#Degradado_sin_nombre_11"/><linearGradient id="Degradado_sin_nombre_11-3" x1="13.72" y1="49.94" x2="17.97" y2="49.94" xlink:href="#Degradado_sin_nombre_11"/><linearGradient id="Degradado_sin_nombre_11-4" x1="18.86" y1="49.94" x2="23.37" y2="49.94" xlink:href="#Degradado_sin_nombre_11"/><linearGradient id="Degradado_sin_nombre_11-5" x1="23.96" y1="49.94" x2="28.74" y2="49.94" xlink:href="#Degradado_sin_nombre_11"/><linearGradient id="Degradado_sin_nombre_11-6" x1="30.06" y1="49.89" x2="32.5" y2="49.89" xlink:href="#Degradado_sin_nombre_11"/><linearGradient id="Degradado_sin_nombre_11-7" x1="33.44" y1="48.94" x2="34" y2="48.94" xlink:href="#Degradado_sin_nombre_11"/><linearGradient id="Degradado_sin_nombre_11-8" x1="34.97" y1="49.25" x2="37.67" y2="49.25" xlink:href="#Degradado_sin_nombre_11"/><linearGradient id="Degradado_sin_nombre_11-9" x1="38.49" y1="49.94" x2="42.86" y2="49.94" xlink:href="#Degradado_sin_nombre_11"/><linearGradient id="Degradado_sin_nombre_11-10" x1="43.81" y1="49.94" x2="47.77" y2="49.94" xlink:href="#Degradado_sin_nombre_11"/></defs><title>iconos</title><path class="cls-1" d="M28,12.19a9.35,9.35,0,0,1,4.9-3.59A8.7,8.7,0,0,1,44,15.68c.65,3.51-.63,6.41-2.63,9.09-3.39,4.54-7.82,7.9-12.5,11a1.43,1.43,0,0,1-1.84,0c-4.57-3-8.9-6.29-12.26-10.68-1.78-2.31-3.16-4.8-3.06-7.85.16-4.72,3.39-8.47,7.85-8.94a8.62,8.62,0,0,1,7.69,3.06Z"/><path class="cls-2" d="M12.56,49.05H8.79v3.62H8.52V45.32h4.56v.27H8.79v3.18h3.77Z"/><path class="cls-3" d="M17.65,52.67a4.16,4.16,0,0,1-.1-1,2.15,2.15,0,0,1-.88.81,2.76,2.76,0,0,1-1.27.29,1.8,1.8,0,0,1-1.22-.41,1.4,1.4,0,0,1-.46-1.08,1.38,1.38,0,0,1,.68-1.2,3.32,3.32,0,0,1,1.81-.46h1.34v-.8a1.35,1.35,0,0,0-.43-1.07,1.83,1.83,0,0,0-1.23-.37,2,2,0,0,0-1.25.38,1.17,1.17,0,0,0-.5,1h-.27a1.38,1.38,0,0,1,.58-1.13,2.24,2.24,0,0,1,1.44-.47,2.07,2.07,0,0,1,1.4.45,1.56,1.56,0,0,1,.54,1.24V51.4A3.34,3.34,0,0,0,18,52.62v.05ZM15.4,52.5a2.45,2.45,0,0,0,1.32-.35,2.1,2.1,0,0,0,.83-1v-1.3H16.29a2.94,2.94,0,0,0-1.79.47,1.12,1.12,0,0,0-.51.94,1.11,1.11,0,0,0,.4.85A1.51,1.51,0,0,0,15.4,52.5Z"/><path class="cls-4" d="M21.11,52.23l2-5h.29l-2.12,5.46H21l-2.12-5.46h.29Z"/><path class="cls-5" d="M24,49.83a3.24,3.24,0,0,1,.3-1.41,2.34,2.34,0,0,1,.84-1,2.3,2.3,0,0,1,1.24-.35,2.38,2.38,0,0,1,1.24.34,2.41,2.41,0,0,1,.85,1,3.34,3.34,0,0,1,.31,1.4V50a3.18,3.18,0,0,1-.3,1.41,2.27,2.27,0,0,1-2.09,1.32,2.24,2.24,0,0,1-2.09-1.31,3.12,3.12,0,0,1-.3-1.39Zm.27.21a2.86,2.86,0,0,0,.27,1.25,2.12,2.12,0,0,0,.75.89,2,2,0,0,0,1.1.32,1.91,1.91,0,0,0,1.53-.71,2.7,2.7,0,0,0,.58-1.8v-.16a2.85,2.85,0,0,0-.27-1.24,2.12,2.12,0,0,0-.75-.89,1.89,1.89,0,0,0-1.1-.32,1.86,1.86,0,0,0-1.52.71,2.72,2.72,0,0,0-.59,1.79Z"/><path class="cls-6" d="M32.47,47.41l-.35,0a1.61,1.61,0,0,0-1.17.45,2.28,2.28,0,0,0-.62,1.26v3.58h-.27V47.21h.27v1.13a2,2,0,0,1,.67-.9,1.78,1.78,0,0,1,1.12-.34,1,1,0,0,1,.38.06Z"/><path class="cls-7" d="M33.44,45.5a.28.28,0,0,1,.08-.2.29.29,0,0,1,.4,0,.24.24,0,0,1,.08.2.26.26,0,0,1-.08.2.28.28,0,0,1-.48-.2Zm.42,7.17h-.28V47.21h.28Z"/><path class="cls-8" d="M36.26,45.73v1.48H37.5v.27H36.26v3.88a1.52,1.52,0,0,0,.19.86.73.73,0,0,0,.63.28,4,4,0,0,0,.54,0l.05.26a1.87,1.87,0,0,1-.57.06,1,1,0,0,1-.85-.33,1.72,1.72,0,0,1-.27-1V47.48H35v-.27h1V45.73Z"/><path class="cls-9" d="M40.89,52.77a2.18,2.18,0,0,1-1.22-.36,2.32,2.32,0,0,1-.86-1,3,3,0,0,1-.32-1.38v-.23a3.08,3.08,0,0,1,.31-1.39,2.29,2.29,0,0,1,.83-1,2,2,0,0,1,1.15-.36,1.94,1.94,0,0,1,1.5.65,2.49,2.49,0,0,1,.58,1.72v.28H38.77v.3a2.65,2.65,0,0,0,.28,1.23,2.1,2.1,0,0,0,.77.89,1.88,1.88,0,0,0,1.07.33,2.06,2.06,0,0,0,.93-.19,1.92,1.92,0,0,0,.69-.56l.19.13A2.06,2.06,0,0,1,40.89,52.77Zm-.11-5.39a1.76,1.76,0,0,0-1.35.59,2.52,2.52,0,0,0-.65,1.51h3.81v-.06a2.3,2.3,0,0,0-.24-1,1.85,1.85,0,0,0-.64-.74A1.68,1.68,0,0,0,40.78,47.38Z"/><path class="cls-10" d="M47.5,51.33c0-.66-.57-1.11-1.7-1.35a3.4,3.4,0,0,1-1.42-.56,1.27,1.27,0,0,1,.11-1.93,2.11,2.11,0,0,1,1.32-.39,2.17,2.17,0,0,1,1.42.43,1.36,1.36,0,0,1,.54,1.13h-.28a1.12,1.12,0,0,0-.47-.91,2.19,2.19,0,0,0-2.34-.06.94.94,0,0,0-.42.78,1,1,0,0,0,.15.58,1.41,1.41,0,0,0,.51.38,5.31,5.31,0,0,0,1,.32,4.51,4.51,0,0,1,1.07.37,1.24,1.24,0,0,1,.75,1.21,1.23,1.23,0,0,1-.53,1.05,2.27,2.27,0,0,1-1.39.39,2.43,2.43,0,0,1-1.48-.42,1.28,1.28,0,0,1-.56-1.07h.27a1.17,1.17,0,0,0,.51.9,2.22,2.22,0,0,0,1.26.32A2,2,0,0,0,47,52.16,1,1,0,0,0,47.5,51.33Z"/></svg>