<svg id="Capa_1" data-name="Capa 1" xmlns="http://www.w3.org/2000/svg" viewBox="0 0 55.92 58.32"><defs><style>.cls-1{fill:#fff;stroke:#757574;stroke-miterlimit:10;}.cls-2{fill:#757574;}</style></defs><title>descubre_off</title><path class="cls-1" d="M30.75,20.66c-1.24,2.26-4.15,2.5-5.65-.08-.13.6-.25,1.05-.31,1.5-.25,1.86-.41,3.74-.73,5.58a8.41,8.41,0,0,1-6.87,6.78,8.53,8.53,0,0,1-8.94-4.19,8.37,8.37,0,0,1,.87-9.66c1.76-1.93,3.73-3.65,5.63-5.43.85-.79,4.08-3.58,4.73-4.32a3.34,3.34,0,0,1,3.36-1,3.24,3.24,0,0,1,2.54,2.43,6.57,6.57,0,0,1,.12,1.12,5.87,5.87,0,0,0,.89-.67,2.07,2.07,0,0,1,3.14,0,5.84,5.84,0,0,0,.89.71,5.81,5.81,0,0,1,.1-1.1A3.21,3.21,0,0,1,33,9.86a3.32,3.32,0,0,1,3.44.93A15.07,15.07,0,0,0,37.54,12c1,.89,2.08,1.7,3.07,2.61,1.86,1.71,3.72,3.43,5.52,5.2a8.22,8.22,0,0,1,2.33,8.45,8.21,8.21,0,0,1-6.38,6.08,8.57,8.57,0,0,1-10.39-7.64c-.15-1.87-.5-3.72-.76-5.58A2.56,2.56,0,0,0,30.75,20.66Z"/><path class="cls-1" d="M40.21,32a5.95,5.95,0,1,0-5.94-6A5.95,5.95,0,0,0,40.21,32Z"/><path class="cls-1" d="M15.67,32A6,6,0,1,0,9.74,26,5.94,5.94,0,0,0,15.67,32Z"/><path class="cls-2" d="M9.75,52.67V45.32h2a3,3,0,0,1,1.55.4,2.87,2.87,0,0,1,1.08,1.13,3.44,3.44,0,0,1,.41,1.64v.95a3.51,3.51,0,0,1-.39,1.66,2.92,2.92,0,0,1-1.08,1.15,3.09,3.09,0,0,1-1.54.42ZM10,45.59v6.8h1.76A2.7,2.7,0,0,0,13.19,52a2.64,2.64,0,0,0,1-1.05,3.26,3.26,0,0,0,.37-1.5v-.94a3.14,3.14,0,0,0-.36-1.5,2.61,2.61,0,0,0-1-1.05,2.74,2.74,0,0,0-1.39-.39Z"/><path class="cls-2" d="M16.3,45.5a.24.24,0,0,1,.08-.2.25.25,0,0,1,.19-.09.31.31,0,0,1,.29.29.23.23,0,0,1-.09.19.25.25,0,0,1-.2.09.25.25,0,0,1-.19-.09A.22.22,0,0,1,16.3,45.5Zm.41,7.17h-.27V47.2h.27Z"/><path class="cls-2" d="M21.87,51.33c0-.66-.56-1.12-1.69-1.35a3.28,3.28,0,0,1-1.42-.56,1.16,1.16,0,0,1-.4-.94,1.21,1.21,0,0,1,.5-1,2.12,2.12,0,0,1,1.33-.39,2.21,2.21,0,0,1,1.41.42,1.39,1.39,0,0,1,.54,1.14h-.28a1.14,1.14,0,0,0-.46-.92,1.93,1.93,0,0,0-1.21-.36,1.86,1.86,0,0,0-1.14.31.94.94,0,0,0-.42.78.91.91,0,0,0,.16.58,1.26,1.26,0,0,0,.51.38,5.09,5.09,0,0,0,1,.32,4.86,4.86,0,0,1,1.07.37,1.43,1.43,0,0,1,.57.51,1.28,1.28,0,0,1,.17.7,1.2,1.2,0,0,1-.53,1,2.2,2.2,0,0,1-1.38.4,2.44,2.44,0,0,1-1.49-.42,1.28,1.28,0,0,1-.56-1.07h.27a1.13,1.13,0,0,0,.51.89,2.15,2.15,0,0,0,1.27.33,1.9,1.9,0,0,0,1.18-.35A1,1,0,0,0,21.87,51.33Z"/><path class="cls-2" d="M25.5,52.5a1.91,1.91,0,0,0,1.23-.4A1.44,1.44,0,0,0,27.25,51h.28a1.72,1.72,0,0,1-.62,1.28,2.11,2.11,0,0,1-1.41.48A2,2,0,0,1,23.87,52a3.14,3.14,0,0,1-.6-2v-.18a3,3,0,0,1,.6-2,2,2,0,0,1,1.62-.75,2.09,2.09,0,0,1,1.44.52,2,2,0,0,1,.6,1.39h-.28a1.66,1.66,0,0,0-.51-1.19,1.77,1.77,0,0,0-1.25-.44,1.71,1.71,0,0,0-1.43.66,2.83,2.83,0,0,0-.52,1.83V50a2.84,2.84,0,0,0,.52,1.8A1.74,1.74,0,0,0,25.5,52.5Z"/><path class="cls-2" d="M28.48,49.83a3.24,3.24,0,0,1,.3-1.41,2.3,2.3,0,0,1,.85-1,2.27,2.27,0,0,1,1.24-.35A2.25,2.25,0,0,1,33,48.4a3.17,3.17,0,0,1,.31,1.4V50a3.18,3.18,0,0,1-.3,1.41,2.34,2.34,0,0,1-.84,1,2.3,2.3,0,0,1-1.24.35,2.27,2.27,0,0,1-1.24-.35,2.16,2.16,0,0,1-.85-1,3.12,3.12,0,0,1-.31-1.39Zm.27.21A2.86,2.86,0,0,0,29,51.29a2.12,2.12,0,0,0,.75.89,2,2,0,0,0,1.11.32,1.89,1.89,0,0,0,1.52-.71A2.71,2.71,0,0,0,33,50v-.16a2.85,2.85,0,0,0-.27-1.24A2.22,2.22,0,0,0,32,47.7a1.86,1.86,0,0,0-1.09-.32,1.9,1.9,0,0,0-1.53.71,2.72,2.72,0,0,0-.59,1.79Z"/><path class="cls-2" d="M36.11,52.23l2-5h.29l-2.12,5.47H36L33.86,47.2h.29Z"/><path class="cls-2" d="M41.34,52.77a2.17,2.17,0,0,1-1.21-.36,2.48,2.48,0,0,1-.87-1A3.17,3.17,0,0,1,39,50.06v-.23a3.21,3.21,0,0,1,.3-1.39,2.38,2.38,0,0,1,.84-1,2,2,0,0,1,1.15-.36,1.91,1.91,0,0,1,1.5.66,2.45,2.45,0,0,1,.58,1.71v.28h-4.1v.3a2.78,2.78,0,0,0,.28,1.23,2.19,2.19,0,0,0,.78.89,1.85,1.85,0,0,0,1.06.33,2.22,2.22,0,0,0,.94-.19,1.81,1.81,0,0,0,.68-.56l.2.13A2.07,2.07,0,0,1,41.34,52.77Zm-.1-5.39a1.76,1.76,0,0,0-1.35.59,2.52,2.52,0,0,0-.65,1.51h3.81v-.06a2.3,2.3,0,0,0-.24-1,1.93,1.93,0,0,0-.64-.74A1.68,1.68,0,0,0,41.24,47.38Z"/><path class="cls-2" d="M47,47.41l-.35,0a1.61,1.61,0,0,0-1.17.45,2.28,2.28,0,0,0-.62,1.26v3.58h-.27V47.2h.27v1.14a2,2,0,0,1,.67-.9,1.78,1.78,0,0,1,1.12-.34,1,1,0,0,1,.38.06Z"/></svg>