<svg id="Capa_1" data-name="Capa 1" xmlns="http://www.w3.org/2000/svg" xmlns:xlink="http://www.w3.org/1999/xlink" viewBox="0 0 55.92 58.32"><defs><style>.cls-1,.cls-2,.cls-3,.cls-4{fill:#fff;stroke-miterlimit:10;}.cls-1{stroke:url(#Degradado_sin_nombre_11);}.cls-2{stroke:url(#Degradado_sin_nombre_11-2);}.cls-3{stroke:url(#Degradado_sin_nombre_11-3);}.cls-4{stroke:url(#Degradado_sin_nombre_11-4);}.cls-5{fill:url(#Degradado_sin_nombre_11-5);}.cls-6{fill:url(#Degradado_sin_nombre_11-6);}.cls-7{fill:url(#Degradado_sin_nombre_11-7);}.cls-8{fill:url(#Degradado_sin_nombre_11-8);}.cls-9{fill:url(#Degradado_sin_nombre_11-9);}</style><linearGradient id="Degradado_sin_nombre_11" x1="9.89" y1="22.4" x2="45.4" y2="22.4" gradientUnits="userSpaceOnUse"><stop offset="0" stop-color="#36ae7e"/><stop offset="1" stop-color="#5db35a"/></linearGradient><linearGradient id="Degradado_sin_nombre_11-2" x1="18.24" y1="20.07" x2="23.69" y2="20.07" xlink:href="#Degradado_sin_nombre_11"/><linearGradient id="Degradado_sin_nombre_11-3" x1="24.92" y1="20.07" x2="30.37" y2="20.07" xlink:href="#Degradado_sin_nombre_11"/><linearGradient id="Degradado_sin_nombre_11-4" x1="31.6" y1="20.07" x2="37.05" y2="20.07" xlink:href="#Degradado_sin_nombre_11"/><linearGradient id="Degradado_sin_nombre_11-5" x1="15.25" y1="48.99" x2="20.53" y2="48.99" xlink:href="#Degradado_sin_nombre_11"/><linearGradient id="Degradado_sin_nombre_11-6" x1="22.1" y1="48.79" x2="26.04" y2="48.79" xlink:href="#Degradado_sin_nombre_11"/><linearGradient id="Degradado_sin_nombre_11-7" x1="27.35" y1="49.94" x2="31.6" y2="49.94" xlink:href="#Degradado_sin_nombre_11"/><linearGradient id="Degradado_sin_nombre_11-8" x1="32.54" y1="49.25" x2="35.23" y2="49.25" xlink:href="#Degradado_sin_nombre_11"/><linearGradient id="Degradado_sin_nombre_11-9" x1="36.16" y1="49.94" x2="40.13" y2="49.94" xlink:href="#Degradado_sin_nombre_11"/></defs><title>iconos</title><path class="cls-1" d="M32.38,33.62h0a3.64,3.64,0,0,0-3,1.62L27.64,37.8l-1.19-2.25a3.65,3.65,0,0,0-3.22-1.93h-.32A12.52,12.52,0,0,1,10.39,21.09v-2A12.52,12.52,0,0,1,22.91,6.52h9.47A12.53,12.53,0,0,1,44.9,19.05v2A12.53,12.53,0,0,1,32.38,33.62Z"/><path class="cls-2" d="M23.19,20.07A2.23,2.23,0,1,1,21,17.85,2.23,2.23,0,0,1,23.19,20.07Z"/><path class="cls-3" d="M29.87,20.07a2.23,2.23,0,1,1-2.23-2.22A2.23,2.23,0,0,1,29.87,20.07Z"/><path class="cls-4" d="M36.55,20.07a2.23,2.23,0,1,1-2.22-2.22A2.23,2.23,0,0,1,36.55,20.07Z"/><path class="cls-5" d="M20.53,50.42a2.58,2.58,0,0,1-.78,1.74,2.62,2.62,0,0,1-1.84.61,2.4,2.4,0,0,1-1.38-.4,2.6,2.6,0,0,1-.94-1.12,4.22,4.22,0,0,1-.34-1.67V48.44a4.13,4.13,0,0,1,.33-1.68,2.59,2.59,0,0,1,.94-1.14,2.44,2.44,0,0,1,1.39-.4,2.7,2.7,0,0,1,1.84.6,2.56,2.56,0,0,1,.78,1.74h-.27a2.3,2.3,0,0,0-.7-1.54,2.37,2.37,0,0,0-1.65-.53,2.1,2.1,0,0,0-1.72.81,3.3,3.3,0,0,0-.66,2.16v1.08a3.75,3.75,0,0,0,.29,1.54,2.29,2.29,0,0,0,.84,1,2.17,2.17,0,0,0,1.25.38A2.43,2.43,0,0,0,19.56,52a2.28,2.28,0,0,0,.7-1.56Z"/><path class="cls-6" d="M22.37,48.48a2.28,2.28,0,0,1,.79-1,2,2,0,0,1,1.15-.37,1.62,1.62,0,0,1,1.3.5A2.22,2.22,0,0,1,26,49.1v3.57h-.27V49.1a2,2,0,0,0-.36-1.3,1.38,1.38,0,0,0-1.12-.42,1.66,1.66,0,0,0-1.22.5,2.47,2.47,0,0,0-.7,1.29v3.5H22.1V44.91h.27Z"/><path class="cls-7" d="M31.28,52.67a4.16,4.16,0,0,1-.1-1,2.15,2.15,0,0,1-.88.81,2.76,2.76,0,0,1-1.27.29,1.8,1.8,0,0,1-1.22-.41,1.37,1.37,0,0,1-.46-1.08,1.38,1.38,0,0,1,.68-1.2,3.28,3.28,0,0,1,1.8-.46h1.35v-.8a1.35,1.35,0,0,0-.43-1.07,1.83,1.83,0,0,0-1.23-.37,2,2,0,0,0-1.25.38,1.17,1.17,0,0,0-.5,1H27.5a1.38,1.38,0,0,1,.58-1.13,2.24,2.24,0,0,1,1.44-.47,2.07,2.07,0,0,1,1.4.45,1.56,1.56,0,0,1,.54,1.24V51.4a3.34,3.34,0,0,0,.14,1.22v.05ZM29,52.5a2.45,2.45,0,0,0,1.32-.35,2.1,2.1,0,0,0,.83-1v-1.3H29.92a2.94,2.94,0,0,0-1.79.47,1.12,1.12,0,0,0-.51.94,1.11,1.11,0,0,0,.4.85A1.49,1.49,0,0,0,29,52.5Z"/><path class="cls-8" d="M33.82,45.73v1.48h1.25v.27H33.82v3.88a1.61,1.61,0,0,0,.19.86.74.74,0,0,0,.64.28,4.15,4.15,0,0,0,.54,0l0,.26a1.87,1.87,0,0,1-.57.06,1,1,0,0,1-.85-.33,1.72,1.72,0,0,1-.26-1V47.48h-1v-.27h1V45.73Z"/><path class="cls-9" d="M39.85,51.33c0-.66-.56-1.11-1.69-1.35a3.34,3.34,0,0,1-1.42-.56,1.16,1.16,0,0,1-.4-.94,1.2,1.2,0,0,1,.51-1,2.07,2.07,0,0,1,1.32-.39,2.19,2.19,0,0,1,1.42.43,1.38,1.38,0,0,1,.53,1.13h-.28a1.11,1.11,0,0,0-.46-.91,1.88,1.88,0,0,0-1.21-.37,1.86,1.86,0,0,0-1.14.31.94.94,0,0,0-.42.78.91.91,0,0,0,.16.58,1.26,1.26,0,0,0,.51.38,5.09,5.09,0,0,0,1,.32,4.68,4.68,0,0,1,1.07.37,1.43,1.43,0,0,1,.57.51,1.3,1.3,0,0,1,.18.7,1.26,1.26,0,0,1-.53,1.05,2.31,2.31,0,0,1-1.39.39,2.39,2.39,0,0,1-1.48-.42,1.27,1.27,0,0,1-.57-1.07h.28a1.13,1.13,0,0,0,.5.9,2.25,2.25,0,0,0,1.27.32,2,2,0,0,0,1.19-.34A1,1,0,0,0,39.85,51.33Z"/></svg>