<svg id="Interfaces" xmlns="http://www.w3.org/2000/svg" xmlns:xlink="http://www.w3.org/1999/xlink" viewBox="0 0 36.61 39.56"><defs><style>.cls-1{fill:url(#Degradado_sin_nombre_11);}</style><linearGradient id="Degradado_sin_nombre_11" y1="19.78" x2="36.61" y2="19.78" gradientUnits="userSpaceOnUse"><stop offset="0" stop-color="#36af7e"/><stop offset="1" stop-color="#5db45a"/></linearGradient></defs><title>compartir</title><path class="cls-1" d="M29.15,24.63a7.44,7.44,0,0,0-5.74,2.7L14.5,22.27a7.42,7.42,0,0,0,0-5l8.91-5.07A7.41,7.41,0,1,0,22.12,10L13.2,15a7.46,7.46,0,1,0,0,9.52l8.92,5.06a7.36,7.36,0,0,0-.43,2.49,7.46,7.46,0,1,0,7.46-7.46Zm0-22A4.86,4.86,0,1,1,24.3,7.46,4.86,4.86,0,0,1,29.15,2.61Zm-21.69,22a4.85,4.85,0,1,1,4.85-4.85A4.86,4.86,0,0,1,7.46,24.63ZM29.15,36.94A4.85,4.85,0,1,1,34,32.09,4.85,4.85,0,0,1,29.15,36.94Z"/></svg>