<svg id="Interfaces" xmlns="http://www.w3.org/2000/svg" xmlns:xlink="http://www.w3.org/1999/xlink" viewBox="0 0 40.02 39.13"><defs><style>.cls-1{fill:url(#Degradado_sin_nombre_11);}.cls-2{fill:url(#Degradado_sin_nombre_11-2);}.cls-3{fill:url(#Degradado_sin_nombre_11-3);}.cls-4{fill:url(#Degradado_sin_nombre_11-4);}.cls-5{fill:url(#Degradado_sin_nombre_11-5);}</style><linearGradient id="Degradado_sin_nombre_11" x1="5.35" y1="19.18" x2="30.3" y2="19.18" gradientUnits="userSpaceOnUse"><stop offset="0" stop-color="#36af7e"/><stop offset="1" stop-color="#5db45a"/></linearGradient><linearGradient id="Degradado_sin_nombre_11-2" x1="0" y1="38.58" x2="40.02" y2="38.58" xlink:href="#Degradado_sin_nombre_11"/><linearGradient id="Degradado_sin_nombre_11-3" x1="27.99" y1="4.5" x2="36.97" y2="4.5" xlink:href="#Degradado_sin_nombre_11"/><linearGradient id="Degradado_sin_nombre_11-4" x1="1.26" y1="31.63" x2="9.44" y2="31.63" xlink:href="#Degradado_sin_nombre_11"/><linearGradient id="Degradado_sin_nombre_11-5" x1="25.83" y1="7.83" x2="32.47" y2="7.83" xlink:href="#Degradado_sin_nombre_11"/></defs><title>editar</title><path class="cls-1" d="M24.68,6.7l5.62,5.61L11,31.66,5.35,26Z"/><path class="cls-2" d="M40,38v1.11H0V38Z"/><path class="cls-3" d="M33.58,9,28,3.39A31.62,31.62,0,0,1,30.53.73a2.8,2.8,0,0,1,4,.28L36,2.43a2.81,2.81,0,0,1,.26,4A33.15,33.15,0,0,1,33.58,9Z"/><path class="cls-4" d="M4.53,27.53l4.91,4.92L1.26,35.72Z"/><path class="cls-5" d="M25.83,5.38l.83-.88,5.81,5.84-.89.81Z"/></svg>