<svg id="Interfaces" xmlns="http://www.w3.org/2000/svg" viewBox="0 0 40.27 39.23"><defs><style>.cls-1{fill:#fff;}</style></defs><title>loadimg</title><path class="cls-1" d="M22.32,4.69A10.31,10.31,0,0,0,34.14,18.36V20q0,7.58,0,15.16a4,4,0,0,1-3,4,4.58,4.58,0,0,1-1,.08H4.38A4.26,4.26,0,0,1,0,34.85V8.77a3.86,3.86,0,0,1,3.75-4c.22,0,.44,0,.66,0H22.32ZM4.19,33.59a5.54,5.54,0,0,0,.8.16c.52,0,1,0,1.57,0l16.4,0h6.2c1,0,1.19-.39.73-1.23s-1-1.82-1.51-2.74L22.8,19.66c-.58-1-1.16-1.1-1.72-.18-.46.74-.88,1.5-1.34,2.24-.86,1.38-1.69,2.79-2.63,4.13-.81,1.17-1.74,1.22-2.81.29-.36-.32-.69-.67-1.06-1a2,2,0,0,0-2.53-.1,4.84,4.84,0,0,0-1,1c-1.51,2.08-3,4.17-4.51,6.25C4.92,32.74,4.59,33.1,4.19,33.59ZM5.71,14.36a4.34,4.34,0,0,0,4.56,4.48,4.52,4.52,0,0,0-.06-9A4.5,4.5,0,0,0,5.71,14.36Z"/><path class="cls-1" d="M40.27,8.38A8.36,8.36,0,1,1,31.94,0,8.35,8.35,0,0,1,40.27,8.38Zm-3.58-.86L31.75,2.66c-1.42,1.43-2.91,2.92-4.38,4.43a.52.52,0,0,0-.08.49c.25.37.56.71.88,1.1L30.9,6l.16.08c0,.23,0,.46,0,.69,0,2.09,0,4.18,0,6.27,0,1.15-.13,1,1.06,1,.62,0,.78-.18.77-.77,0-2.11,0-4.23,0-6.34,0-.22,0-.45,0-.85l.59.54c.52.53,1,1.07,1.57,1.57a.61.61,0,0,0,.57.11A8.37,8.37,0,0,0,36.69,7.52Z"/></svg>