<?xml version="1.0" encoding="utf-8"?>
<!-- Generator: Adobe Illustrator 23.0.0, SVG Export Plug-In . SVG Version: 6.00 Build 0)  -->
<svg version="1.1" id="Interfaces" xmlns="http://www.w3.org/2000/svg" xmlns:xlink="http://www.w3.org/1999/xlink" x="0px" y="0px"
	 viewBox="0 0 122.3 122.3" style="enable-background:new 0 0 122.3 122.3;" xml:space="preserve">
<style type="text/css">
	.st0{fill:none;}
	.st1{fill:#333333;enable-background:new    ;}
	.st2{fill:#E7E8E9;enable-background:new    ;}
</style>
<title>perfil8</title>
<circle class="st0" cx="61.2" cy="61.2" r="58.2"/>
<path class="st1" d="M61.2,122.3C27.4,122.3,0,94.9,0,61.2C0,27.4,27.4,0,61.1,0c33.8,0,61.2,27.4,61.2,61.2l0,0
	C122.3,94.9,94.9,122.3,61.2,122.3z M61.2,5.9C30.6,5.9,5.9,30.6,5.9,61.2s24.7,55.3,55.3,55.3s55.3-24.7,55.3-55.3l0,0
	C116.4,30.6,91.7,5.9,61.2,5.9z"/>
<path class="st1" d="M76.6,33.2c3.4-1.7,7.5-1.1,10.3,1.5c0.8,0.8,1.6,1.7,0.8,2.8s-2.1,2-3.4,1c-3.4-2.4-5.8-1.5-7.7,1.9
	c-0.5,1-1.7,1.4-2.7,1c-0.1-0.1-0.3-0.2-0.4-0.2c-1.2-0.7-1.6-2.2-0.9-3.4C73.5,35.9,74.8,34.4,76.6,33.2z"/>
<path class="st1" d="M28.1,48.9c3.1-2.3,7.2-2.4,10.4-0.3c1,0.7,1.8,1.4,1.2,2.6s-1.7,2.3-3.1,1.6c-3.8-1.8-6-0.5-7.3,3.2
	c-0.3,1.1-1.4,1.7-2.5,1.4c-0.2,0-0.3-0.1-0.4-0.2c-1.3-0.5-2-1.9-1.5-3.2l0,0C25.5,52.1,26.6,50.3,28.1,48.9z"/>
<path class="st1" d="M69.2,69.6c-4.5,2.5-9.6,3.5-14.7,2.7c-1.5-0.2-3-0.5-2.7-2.5s1.7-1.9,3.3-1.8c6.4,0.7,12.1-0.7,16.3-6
	c1-1.2,2.3-1.9,3.6-0.6s0.5,2.3-0.4,3.4C73.1,66.8,71.3,68.4,69.2,69.6z"/>
<path class="st2" d="M36,75c-1.9,0.9-3.9,1.3-6,1.2c-1.4-0.1-3-0.4-3.4-2c-0.3-1.4,0.3-2.9,1.6-3.6c3.1-2.1,6.5-3.6,10.4-3.3
	c1.7,0.1,2.9,0.6,3.5,2.3s-0.6,2.7-1.8,3.4C38.8,73.8,37.4,74.4,36,75z"/>
<path class="st2" d="M90.2,56.2c-1.9,0.9-3.9,1.3-6,1.2c-1.4-0.1-3-0.4-3.4-2c-0.3-1.4,0.3-2.9,1.6-3.6c3.1-2.1,6.5-3.5,10.4-3.3
	c1.7,0.1,2.9,0.5,3.4,2.3s-0.6,2.7-1.8,3.4C93,55,91.6,55.6,90.2,56.2z"/>
</svg>
