<svg id="Capa_1" data-name="Capa 1" xmlns="http://www.w3.org/2000/svg" xmlns:xlink="http://www.w3.org/1999/xlink" viewBox="0 0 55.92 58.32"><defs><style>.cls-1,.cls-2,.cls-3,.cls-5{fill:#fff;}.cls-1,.cls-2,.cls-3{stroke-miterlimit:10;}.cls-1{stroke:url(#Degradado_sin_nombre_11);}.cls-2{stroke:url(#Degradado_sin_nombre_11-2);}.cls-3{stroke:url(#Degradado_sin_nombre_11-3);}.cls-4{fill:url(#Degradado_sin_nombre_11-4);}.cls-6{fill:url(#Degradado_sin_nombre_11-5);}.cls-7{fill:url(#Degradado_sin_nombre_11-6);}.cls-8{fill:url(#Degradado_sin_nombre_11-7);}.cls-9{fill:url(#Degradado_sin_nombre_11-8);}.cls-10{fill:url(#Degradado_sin_nombre_11-9);}.cls-11{fill:url(#Degradado_sin_nombre_11-10);}.cls-12{fill:url(#Degradado_sin_nombre_11-11);}.cls-13{fill:url(#Degradado_sin_nombre_11-12);}</style><linearGradient id="Degradado_sin_nombre_11" x1="11.2" y1="21.3" x2="48.4" y2="21.3" gradientUnits="userSpaceOnUse"><stop offset="0" stop-color="#36ae7e"/><stop offset="1" stop-color="#5db35a"/></linearGradient><linearGradient id="Degradado_sin_nombre_11-2" x1="15.11" y1="31.7" x2="26.34" y2="31.7" xlink:href="#Degradado_sin_nombre_11"/><linearGradient id="Degradado_sin_nombre_11-3" x1="31.5" y1="31.7" x2="42.74" y2="31.7" xlink:href="#Degradado_sin_nombre_11"/><linearGradient id="Degradado_sin_nombre_11-4" x1="17.47" y1="12.86" x2="18.75" y2="12.86" xlink:href="#Degradado_sin_nombre_11"/><linearGradient id="Degradado_sin_nombre_11-5" x1="7.53" y1="15.52" x2="11.76" y2="15.52" xlink:href="#Degradado_sin_nombre_11"/><linearGradient id="Degradado_sin_nombre_11-6" x1="8.32" y1="20.03" x2="11.7" y2="20.03" xlink:href="#Degradado_sin_nombre_11"/><linearGradient id="Degradado_sin_nombre_11-7" x1="11.4" y1="48.99" x2="18.24" y2="48.99" xlink:href="#Degradado_sin_nombre_11"/><linearGradient id="Degradado_sin_nombre_11-8" x1="19.47" y1="51.04" x2="24.02" y2="51.04" xlink:href="#Degradado_sin_nombre_11"/><linearGradient id="Degradado_sin_nombre_11-9" x1="26.86" y1="49.25" x2="29.55" y2="49.25" xlink:href="#Degradado_sin_nombre_11"/><linearGradient id="Degradado_sin_nombre_11-10" x1="30.29" y1="49.94" x2="35.07" y2="49.94" xlink:href="#Degradado_sin_nombre_11"/><linearGradient id="Degradado_sin_nombre_11-11" x1="35.67" y1="51.04" x2="40.22" y2="51.04" xlink:href="#Degradado_sin_nombre_11"/><linearGradient id="Degradado_sin_nombre_11-12" x1="40.93" y1="49.94" x2="44.9" y2="49.94" xlink:href="#Degradado_sin_nombre_11"/></defs><title>iconos</title><path class="cls-1" d="M28.59,17h19.3s.55,18.06-18,18.06C19.3,35.09,11.7,32.69,11.7,19S28.59,2.92,28.59,17Z"/><circle class="cls-2" cx="20.73" cy="31.7" r="5.12"/><circle class="cls-3" cx="37.12" cy="31.7" r="5.12"/><circle class="cls-4" cx="18.11" cy="12.86" r="0.64"/><path class="cls-5" d="M8,13.36s.43,4.48,3.68,4.07"/><path class="cls-6" d="M8,13.36a27.15,27.15,0,0,0,1.43,2.58,3.79,3.79,0,0,0,.91.92,4.62,4.62,0,0,0,1.34.57,2.19,2.19,0,0,1-1.67.14,2.86,2.86,0,0,1-1.39-1.05A4,4,0,0,1,8,15,3.69,3.69,0,0,1,8,13.36Z"/><path class="cls-5" d="M8.72,21a4.18,4.18,0,0,1,3-1.67"/><path class="cls-7" d="M8.72,21a2.11,2.11,0,0,1,1-1.6,1.84,1.84,0,0,1,1.93-.07c-.3.22-.53.36-.76.51s-.44.27-.65.42A8,8,0,0,1,8.72,21Z"/><path class="cls-8" d="M11.79,45.32l3,7,3-7h.4v7.35H18v-7l-3,7H14.7l-3-6.91v6.91H11.4V45.32Z"/><path class="cls-9" d="M21.79,52.24l0-.1,1.89-4.93H24l-2.44,6.41-.13.3a1.33,1.33,0,0,1-1.3.95,1,1,0,0,1-.4,0v-.26a1.4,1.4,0,0,0,.37,0,1,1,0,0,0,.71-.25,1.81,1.81,0,0,0,.49-.81l.34-.9-2.18-5.43h.3Z"/><path class="cls-10" d="M28.14,45.73v1.48h1.25v.27H28.14v3.88a1.61,1.61,0,0,0,.19.86.74.74,0,0,0,.64.28,4.15,4.15,0,0,0,.54,0l0,.26a1.87,1.87,0,0,1-.57.06,1,1,0,0,1-.85-.33,1.72,1.72,0,0,1-.26-1V47.48h-1v-.27h1V45.73Z"/><path class="cls-11" d="M30.29,49.83a3.24,3.24,0,0,1,.3-1.41,2.3,2.3,0,0,1,.85-1,2.27,2.27,0,0,1,1.24-.35,2.25,2.25,0,0,1,2.08,1.3,3.2,3.2,0,0,1,.31,1.4V50a3.18,3.18,0,0,1-.3,1.41,2.24,2.24,0,0,1-2.08,1.32,2.35,2.35,0,0,1-1.24-.34,2.24,2.24,0,0,1-.85-1,3.12,3.12,0,0,1-.31-1.39Zm.27.21a2.86,2.86,0,0,0,.27,1.25,2.12,2.12,0,0,0,.75.89,2,2,0,0,0,1.11.32,1.89,1.89,0,0,0,1.52-.71A2.71,2.71,0,0,0,34.8,50v-.16a2.85,2.85,0,0,0-.27-1.24,2.22,2.22,0,0,0-.76-.89,1.86,1.86,0,0,0-1.09-.32,1.9,1.9,0,0,0-1.53.71,2.72,2.72,0,0,0-.59,1.79Z"/><path class="cls-12" d="M38,52.24l0-.1,1.88-4.93h.31l-2.45,6.41-.12.3a1.34,1.34,0,0,1-1.3.95,1,1,0,0,1-.41,0v-.26a1.4,1.4,0,0,0,.37,0,1,1,0,0,0,.71-.25,1.91,1.91,0,0,0,.49-.81l.33-.9-2.17-5.43H36Z"/><path class="cls-13" d="M44.62,51.33c0-.66-.56-1.11-1.69-1.35a3.4,3.4,0,0,1-1.42-.56,1.16,1.16,0,0,1-.4-.94,1.2,1.2,0,0,1,.51-1,2.11,2.11,0,0,1,1.32-.39,2.19,2.19,0,0,1,1.42.43,1.38,1.38,0,0,1,.53,1.13h-.28a1.11,1.11,0,0,0-.46-.91,2.2,2.2,0,0,0-2.35-.06.94.94,0,0,0-.42.78,1,1,0,0,0,.16.58,1.26,1.26,0,0,0,.51.38,5.09,5.09,0,0,0,1,.32,4.68,4.68,0,0,1,1.07.37,1.43,1.43,0,0,1,.57.51,1.3,1.3,0,0,1,.18.7,1.26,1.26,0,0,1-.53,1.05,2.31,2.31,0,0,1-1.39.39,2.41,2.41,0,0,1-1.48-.42,1.27,1.27,0,0,1-.57-1.07h.28a1.13,1.13,0,0,0,.5.9A2.27,2.27,0,0,0,43,52.5a2,2,0,0,0,1.19-.34A1,1,0,0,0,44.62,51.33Z"/></svg>