<svg id="Interfaces" xmlns="http://www.w3.org/2000/svg" xmlns:xlink="http://www.w3.org/1999/xlink" viewBox="0 0 45.13 39.16"><defs><style>.cls-1{fill:url(#Degradado_sin_nombre_11);}</style><linearGradient id="Degradado_sin_nombre_11" y1="19.58" x2="45.13" y2="19.58" gradientUnits="userSpaceOnUse"><stop offset="0" stop-color="#36af7e"/><stop offset="1" stop-color="#5db45a"/></linearGradient></defs><title>corazonoff</title><path class="cls-1" d="M22.57,39.16a3.67,3.67,0,0,1-2-.68c-5.39-3.55-11.54-8-16.28-14.2C2.21,21.58-.15,17.87,0,13.13.24,6.25,5.09.76,11.54.08a12.75,12.75,0,0,1,11,4.25,12.89,12.89,0,0,1,16.3-2.47,13.2,13.2,0,0,1,6,9c1.07,5.75-1.59,10.15-3.69,13-4.75,6.38-11,11-16.59,14.62A3.7,3.7,0,0,1,22.57,39.16ZM13,3c-.39,0-.78,0-1.18.07C6.83,3.6,3.19,7.77,3,13.23c-.11,3,1,5.76,3.65,9.23C11.13,28.29,17,32.56,22.21,36c.37.24.37.24.74,0,5.32-3.5,11.36-7.9,15.84-13.9,2.83-3.8,3.8-7.08,3.15-10.63a10.34,10.34,0,0,0-4.63-7,9.77,9.77,0,0,0-8-1,10.56,10.56,0,0,0-5.57,4.12L22.66,9,21.08,7.17l-.54-.62A9.74,9.74,0,0,0,13,3Z"/></svg>