<svg id="Interfaces" xmlns="http://www.w3.org/2000/svg" xmlns:xlink="http://www.w3.org/1999/xlink" viewBox="0 0 45.13 39.16"><defs><style>.cls-1{fill:url(#Degradado_sin_nombre_11);}</style><linearGradient id="Degradado_sin_nombre_11" y1="19.58" x2="45.13" y2="19.58" gradientUnits="userSpaceOnUse"><stop offset="0" stop-color="#36af7e"/><stop offset="1" stop-color="#5db45a"/></linearGradient></defs><title>corazonon</title><path class="cls-1" d="M22.57,39.16a3.67,3.67,0,0,1-2-.68c-5.39-3.55-11.54-8-16.28-14.2C2.21,21.58-.15,17.87,0,13.13.24,6.25,5.09.76,11.54.08a12.75,12.75,0,0,1,11,4.25,12.92,12.92,0,0,1,16.3-2.47,13.2,13.2,0,0,1,6,9c1.07,5.75-1.59,10.15-3.69,13-4.75,6.38-11,11-16.59,14.62A3.7,3.7,0,0,1,22.57,39.16Z"/></svg>