<svg id="Capa_1" data-name="Capa 1" xmlns="http://www.w3.org/2000/svg" viewBox="0 0 55.92 58.32"><defs><style>.cls-1{fill:#fff;stroke:#757574;stroke-miterlimit:10;}.cls-2{font-size:10.34px;fill:#757574;font-family:Roboto-Thin, Roboto;font-weight:200;}</style></defs><title>iconos</title><path class="cls-1" d="M32.38,33.62h0a3.64,3.64,0,0,0-3,1.62L27.64,37.8l-1.19-2.25a3.65,3.65,0,0,0-3.22-1.93h-.32A12.52,12.52,0,0,1,10.39,21.09v-2A12.52,12.52,0,0,1,22.91,6.52h9.47A12.53,12.53,0,0,1,44.9,19.05v2A12.53,12.53,0,0,1,32.38,33.62Z"/><path class="cls-1" d="M23.19,20.07A2.23,2.23,0,1,1,21,17.85,2.23,2.23,0,0,1,23.19,20.07Z"/><path class="cls-1" d="M29.87,20.07a2.23,2.23,0,1,1-2.23-2.22A2.23,2.23,0,0,1,29.87,20.07Z"/><path class="cls-1" d="M36.55,20.07a2.23,2.23,0,1,1-2.22-2.22A2.23,2.23,0,0,1,36.55,20.07Z"/><text class="cls-2" transform="translate(14.53 52.67)">Chats</text></svg>