<svg id="Capa_1" data-name="Capa 1" xmlns="http://www.w3.org/2000/svg" viewBox="0 0 55.92 58.32"><defs><style>.cls-1{fill:#fff;stroke:#757574;stroke-miterlimit:10;}.cls-2{font-size:10.34px;fill:#757574;font-family:Roboto-Thin, Roboto;font-weight:200;letter-spacing:-0.02em;}.cls-3{letter-spacing:-0.01em;}.cls-4{letter-spacing:0em;}</style></defs><title>iconos</title><path class="cls-1" d="M28,12.19a9.35,9.35,0,0,1,4.9-3.59A8.7,8.7,0,0,1,44,15.68c.65,3.51-.63,6.41-2.63,9.09-3.39,4.54-7.82,7.9-12.5,11a1.43,1.43,0,0,1-1.84,0c-4.57-3-8.9-6.29-12.26-10.68-1.78-2.31-3.16-4.8-3.06-7.85.16-4.72,3.39-8.47,7.85-8.94a8.62,8.62,0,0,1,7.69,3.06Z"/><text class="cls-2" transform="translate(7.51 52.67)">F<tspan class="cls-3" x="5.75" y="0">av</tspan><tspan class="cls-4" x="15.99" y="0">orites</tspan></text></svg>