<svg id="Capa_1" data-name="Capa 1" xmlns="http://www.w3.org/2000/svg" viewBox="0 0 55.92 58.32"><defs><style>.cls-1{fill:#fff;stroke:#757574;stroke-miterlimit:10;}.cls-2,.cls-3{fill:#757574;}.cls-3{font-size:10.34px;font-family:Roboto-Thin, Roboto;font-weight:200;}.cls-4{letter-spacing:-0.01em;}.cls-5{letter-spacing:-0.01em;}.cls-6{letter-spacing:0em;}</style></defs><title>iconos</title><path class="cls-1" d="M28.59,17h19.3s.55,18.06-18,18.06C19.3,35.09,11.7,32.69,11.7,19S28.59,2.92,28.59,17Z"/><circle class="cls-1" cx="20.73" cy="31.7" r="5.12"/><circle class="cls-1" cx="37.12" cy="31.7" r="5.12"/><circle class="cls-2" cx="18.11" cy="12.86" r="0.64"/><path class="cls-2" d="M8,13.36a27.15,27.15,0,0,0,1.43,2.58,3.79,3.79,0,0,0,.91.92,4.62,4.62,0,0,0,1.34.57,2.19,2.19,0,0,1-1.67.14,2.86,2.86,0,0,1-1.39-1.05A4,4,0,0,1,8,15,3.69,3.69,0,0,1,8,13.36Z"/><path class="cls-2" d="M8.72,21a2.11,2.11,0,0,1,1-1.6,1.84,1.84,0,0,1,1.93-.07c-.3.22-.53.36-.76.51s-.44.27-.65.42A8,8,0,0,1,8.72,21Z"/><text class="cls-3" transform="translate(10.39 52.67)">My <tspan class="cls-4" x="16.28" y="0">t</tspan><tspan class="cls-5" x="19.45" y="0">o</tspan><tspan class="cls-6" x="25.06" y="0">ys</tspan></text></svg>