<svg id="Capa_1" data-name="Capa 1" xmlns="http://www.w3.org/2000/svg" viewBox="0 0 55.92 58.32"><defs><style>.cls-1{fill:#fff;stroke:#757574;stroke-miterlimit:10;}.cls-2{font-size:10.34px;fill:#757574;font-family:Roboto-Thin, Roboto;font-weight:200;}.cls-3{letter-spacing:-0.01em;}.cls-4{letter-spacing:-0.01em;}</style></defs><title>iconos</title><path class="cls-1" d="M30.75,20.66c-1.24,2.26-4.15,2.5-5.65-.08-.13.6-.25,1.05-.31,1.5-.25,1.86-.41,3.74-.73,5.58a8.41,8.41,0,0,1-6.87,6.78,8.53,8.53,0,0,1-8.94-4.19,8.37,8.37,0,0,1,.87-9.66c1.76-1.93,3.73-3.65,5.63-5.43.85-.79,4.08-3.58,4.73-4.32a3.34,3.34,0,0,1,3.36-1,3.24,3.24,0,0,1,2.54,2.43,6.57,6.57,0,0,1,.12,1.12,5.87,5.87,0,0,0,.89-.67,2.07,2.07,0,0,1,3.14,0,5.84,5.84,0,0,0,.89.71,5.81,5.81,0,0,1,.1-1.1A3.21,3.21,0,0,1,33,9.86a3.32,3.32,0,0,1,3.44.93A15.07,15.07,0,0,0,37.54,12c1,.89,2.08,1.7,3.07,2.61,1.86,1.71,3.72,3.43,5.52,5.2a8.22,8.22,0,0,1,2.33,8.45,8.21,8.21,0,0,1-6.38,6.08,8.57,8.57,0,0,1-10.39-7.64c-.15-1.87-.5-3.72-.76-5.58A2.56,2.56,0,0,0,30.75,20.66Z"/><path class="cls-1" d="M40.21,32a5.95,5.95,0,1,0-5.94-6A5.95,5.95,0,0,0,40.21,32Z"/><path class="cls-1" d="M15.67,32A6,6,0,1,0,9.74,26,5.94,5.94,0,0,0,15.67,32Z"/><text class="cls-2" transform="translate(8.74 52.67)">Disc<tspan class="cls-3" x="19.29" y="0">o</tspan><tspan class="cls-4" x="24.9" y="0">v</tspan><tspan x="29.77" y="0">er</tspan></text></svg>